<?xml version="1.0" standalone="no"?>
<!DOCTYPE svg PUBLIC "-//W3C//DTD SVG 20010904//EN"
 "http://www.w3.org/TR/2001/REC-SVG-20010904/DTD/svg10.dtd">
<svg version="1.0" xmlns="http://www.w3.org/2000/svg"
 width="1089.000000pt" height="1280.000000pt" viewBox="0 0 1089.000000 1280.000000"
 preserveAspectRatio="xMidYMid meet">

<g transform="translate(0.000000,1280.000000) scale(0.100000,-0.100000)"
fill="#000000" stroke="none">
<path d="M5065 12790 c-384 -44 -720 -197 -964 -440 -325 -323 -501 -779 -527
-1367 -4 -87 8 -509 30 -1136 20 -549 36 -1049 36 -1111 0 -216 -49 -395 -163
-590 -51 -88 -223 -301 -472 -586 -244 -277 -339 -393 -442 -535 -181 -250
-229 -365 -413 -975 -188 -625 -251 -773 -438 -1040 -104 -150 -209 -353 -243
-470 -13 -49 -23 -118 -26 -198 -7 -147 8 -225 68 -350 l40 -83 41 36 c69 63
159 98 258 103 213 10 330 -55 563 -313 203 -225 337 -416 739 -1058 271 -433
410 -643 523 -792 151 -198 229 -340 281 -510 25 -82 28 -104 28 -255 1 -153
-1 -171 -26 -245 -40 -116 -92 -199 -183 -290 -132 -131 -306 -214 -525 -250
-185 -31 -555 -7 -685 45 -135 54 -458 123 -795 170 -477 66 -785 111 -809
117 -14 3 -24 3 -21 0 13 -14 465 -131 765 -197 430 -95 667 -169 924 -289
243 -114 429 -161 637 -161 192 0 362 45 497 133 78 51 121 90 205 185 35 39
94 94 130 121 197 148 359 176 1167 202 434 14 785 4 1315 -40 195 -16 394
-33 443 -36 l87 -7 0 -32 c0 -43 25 -138 49 -184 117 -229 475 -376 871 -359
214 9 414 62 575 151 56 31 110 79 265 236 272 275 419 389 803 621 72 44 125
79 119 79 -20 0 -158 -58 -261 -109 -139 -70 -303 -183 -546 -377 -241 -191
-337 -257 -468 -319 -219 -104 -451 -126 -721 -69 -211 44 -374 195 -444 410
-57 174 -71 442 -39 754 9 96 20 294 24 440 6 264 -3 681 -16 679 -3 0 -37
-44 -76 -97 -86 -119 -315 -351 -453 -460 -410 -324 -887 -537 -1411 -629
-196 -34 -517 -43 -697 -19 -477 63 -814 271 -992 613 l-42 82 37 6 c184 30
280 67 361 140 165 148 140 396 -61 611 -82 88 -182 171 -567 474 -366 287
-595 478 -744 622 l-120 114 -8 155 c-10 185 4 482 31 664 66 447 198 803 506
1370 212 391 279 542 295 670 49 392 228 799 561 1273 l101 144 -16 96 c-25
148 -30 257 -17 386 l13 118 -40 46 c-21 26 -64 66 -95 90 -44 34 -59 52 -68
84 -25 94 34 213 194 392 l44 50 -39 65 c-48 83 -89 189 -119 311 -21 83 -24
120 -24 295 0 178 3 209 23 285 50 185 156 341 270 397 82 40 183 40 266 -1
126 -62 237 -220 288 -411 31 -118 32 -347 1 -423 -19 -46 -19 -52 -5 -48 124
38 332 52 512 33 l75 -7 0 152 c1 128 5 167 24 238 94 340 321 550 596 550
267 0 497 -205 590 -524 82 -287 28 -621 -135 -835 -23 -29 -40 -54 -38 -55 2
-2 48 -26 103 -56 119 -63 143 -82 151 -127 8 -41 -15 -80 -56 -95 -39 -13
-43 -32 -33 -146 12 -145 5 -196 -33 -242 -51 -60 -28 -119 206 -540 94 -170
198 -367 230 -439 119 -263 196 -512 244 -791 l24 -140 72 -77 c385 -417 583
-933 652 -1703 17 -197 16 -842 -2 -1140 -21 -334 -19 -514 8 -615 68 -252
227 -422 447 -480 93 -24 253 -20 369 9 297 76 577 291 786 603 163 242 235
470 262 822 57 753 -271 1918 -736 2611 -55 82 -115 150 -271 306 -276 276
-397 440 -638 861 -312 544 -433 806 -512 1110 -56 213 -72 358 -85 771 -5
178 -14 363 -20 411 -5 49 -14 163 -20 254 -38 634 -243 1130 -622 1508 -317
315 -719 510 -1208 584 -124 19 -480 28 -595 15z"/>
<path d="M5817 10475 c-196 -72 -299 -344 -209 -554 16 -39 25 -44 200 -131
101 -49 191 -90 200 -90 29 0 116 56 155 99 110 122 140 324 69 475 -65 138
-176 217 -307 215 -38 0 -87 -7 -108 -14z"/>
<path d="M4205 10436 c-83 -38 -135 -115 -161 -235 -7 -36 -14 -86 -14 -111 0
-64 25 -173 54 -236 27 -58 117 -157 152 -166 16 -4 40 9 90 50 38 30 106 79
150 109 93 62 94 65 94 197 0 93 -17 165 -57 243 -36 72 -118 147 -177 162
-62 15 -74 14 -131 -13z"/>
<path d="M5260 9817 c-28 -14 -38 -48 -18 -64 18 -14 107 -43 133 -43 28 0 59
34 51 55 -12 33 -130 70 -166 52z"/>
</g>
</svg>
